<svg id="グループ_5300" data-name="グループ 5300" xmlns="http://www.w3.org/2000/svg" width="85.236" height="97.013" viewBox="0 0 85.236 97.013">
  <g id="グループ_5301" data-name="グループ 5301">
    <path id="パス_10936" data-name="パス 10936" d="M69.518,169.284c-3.326-2.639-12.217-4.445-15.087-6.714l.206.833c-.278,4.9-.641,18.6-11.985,25.891,0,0-.038-.048-.091-.116-.05.069-.089.116-.089.116-11.339-7.282-11.7-20.965-11.984-25.881l.218-.632c0-.055-.01-.124-.013-.178-2.871,2.257-11.5,4.437-15.088,6.68C1.983,177.8,0,194.08,0,194.08H85.124s2.455-10.464-15.606-24.8" transform="translate(0 -97.066)" fill="#002a6d"/>
    <path id="パス_10937" data-name="パス 10937" d="M99.42,147.172c-2.295-4.221-2.674-10.028-2.674-10.028l-9.355,1.2-9.359-1.2s-.371,5.809-2.673,10.032l-.374,1.056c.282,4.915,2.071,18.6,12.27,25.88h.161c10.2-7.287,11.987-20.994,12.27-25.891Z" transform="translate(-44.772 -81.885)" fill="#fff"/>
    <path id="パス_10938" data-name="パス 10938" d="M86.618,173.659h-.6l-.176-.127C75.17,165.91,73.539,151.405,73.294,147.14L73.286,147l.464-1.282c2.2-4.046,2.588-9.7,2.591-9.752l.046-.72,9.989,1.278,9.982-1.278.048.718c0,.057.4,5.712,2.594,9.748l.062.158.291,1.151-.005.1c-.247,4.267-1.88,18.781-12.553,26.4ZM74.654,147.2c.261,4.231,1.868,17.751,11.667,25.006,9.819-7.272,11.413-20.852,11.669-25.048l-.22-.867a27.978,27.978,0,0,1-2.651-9.515l-8.743,1.12-.086-.01-8.661-1.109a27.754,27.754,0,0,1-2.665,9.547Z" transform="translate(-43.757 -80.755)" fill="#222"/>
    <path id="パス_10939" data-name="パス 10939" d="M80.192,53.779c-.2-.2-.382-.41-.571-.618-.189.2-.369.41-.568.612-5.58,5.68-12.6,8.017-16.864,5.946a26.3,26.3,0,0,0-.259,3.651c0,13.075,7.976,30.69,17.807,30.69s17.806-17.615,17.806-30.69a26.644,26.644,0,0,0-.239-3.52c-4.215,2.169-11.381-.24-17.113-6.072" transform="translate(-36.977 -31.741)" fill="#fff"/>
    <path id="パス_10940" data-name="パス 10940" d="M78.735,93.256c-10.722,0-18.484-18.737-18.484-31.367a26.95,26.95,0,0,1,.266-3.744l.128-.924.838.407a7.334,7.334,0,0,0,3.223.676c4,0,8.93-2.486,12.862-6.489.124-.125.24-.253.356-.381l.7-.756.634.7c.135.149.269.3.413.442,4.037,4.109,9.046,6.66,13.076,6.66a7.034,7.034,0,0,0,3.246-.712l.855-.441.126.955a27.378,27.378,0,0,1,.246,3.608c0,12.63-7.762,31.367-18.484,31.367M61.751,59.2a25.088,25.088,0,0,0-.145,2.69c0,13.23,8.065,30.013,17.129,30.013s17.13-16.783,17.13-30.013a25.211,25.211,0,0,0-.13-2.539,8.884,8.884,0,0,1-2.989.483c-4.445,0-9.694-2.641-14.04-7.062l-.088-.091-.083.085c-4.241,4.317-9.41,6.893-13.829,6.893a9.133,9.133,0,0,1-2.955-.459" transform="translate(-35.974 -30.259)" fill="#222"/>
    <path id="パス_10941" data-name="パス 10941" d="M104.983,131.682c.416.193-2.393,1.148-3.344,1.148-1.229,0-4-.94-3.591-1.148,1.791-.9,1.615-.711,3.528-.711a5.071,5.071,0,0,1,3.407.711" transform="translate(-58.517 -78.189)" fill="#222"/>
    <path id="パス_10942" data-name="パス 10942" d="M95.189,43.463c1.158-4.678,1.874-6.94,1.759-9.308-.625-13.048-3.963-20.138-10.059-23.545A6.515,6.515,0,0,0,87.782,7.3C87.752,3.237,83.9-.033,79.184,0s-8.522,3.356-8.493,7.422a6.5,6.5,0,0,0,.1,1.056C58.437,11.386,51.378,26.447,54.609,37.4c3.461,11.736,1.557,15.138.187,16.126a5.374,5.374,0,0,1-.822.452,3.391,3.391,0,0,0,1.277-.163c1.657-.575,4.058-3.006,3.572-12.4-.251-4.848,4.321-10.161,4.321-10.161a20.472,20.472,0,0,0,10.221-8.273l.212-1.182c.595,15.328,13.041,5.059,15.894,21.15.9,5.1,7.423,9.7,7.423,9.7a11.818,11.818,0,0,1-1.706-9.194" transform="translate(-32.139 0)" fill="#222"/>
    <g id="グループ_5302" data-name="グループ 5302">
      <rect id="長方形_27713" data-name="長方形 27713" width="85.236" height="97.013" fill="none"/>
    </g>
  </g>
</svg>
