<svg id="グループ_5304" data-name="グループ 5304" xmlns="http://www.w3.org/2000/svg" xmlns:xlink="http://www.w3.org/1999/xlink" width="95.258" height="90.387" viewBox="0 0 95.258 90.387">
  <defs>
    <clipPath id="clip-path">
      <rect id="長方形_27717" data-name="長方形 27717" width="95.258" height="90.387" fill="none"/>
    </clipPath>
  </defs>
  <g id="グループ_5303" data-name="グループ 5303" clip-path="url(#clip-path)">
    <path id="パス_10943" data-name="パス 10943" d="M89.664,144.483c-1.217-1.832-15.439-7.779-23.478-8.879-.534-.073-1.383-.208-2.27-.354l-.9-1.384-1.125-.235L58.7,125.192H37.434l-3.406,8.661-.727.449-.124.858c-1.075.178-2.178.356-2.822.444-8.039,1.1-22.26,7.047-23.479,8.879s-5.813,21.052-5.813,21.052H95.476s-4.6-19.221-5.812-21.052" transform="translate(-0.642 -75.482)" fill="#002a6d"/>
    <path id="パス_10944" data-name="パス 10944" d="M95.258,165.362H0l.1-.411c.188-.786,4.623-19.3,5.859-21.159,1.294-1.944,15.55-7.909,23.711-9.024.593-.082,1.578-.239,2.571-.4l.112-.77.766-.473,3.448-8.769H58.291l3.2,8.483,1.082.227.9,1.377c.83.135,1.612.26,2.115.329,8.162,1.115,22.418,7.079,23.71,9.025,1.237,1.858,5.671,20.372,5.86,21.158ZM.846,164.7H94.412c-1.616-6.736-4.75-19.154-5.667-20.533-1.087-1.635-14.936-7.6-23.245-8.732-.538-.074-1.389-.21-2.278-.357l-.145-.023-.907-1.392L61,133.414l-3.169-8.395H37.02l-3.364,8.554-.691.425-.137.945-.24.041c-1.078.179-2.184.357-2.83.446-8.308,1.136-22.159,7.1-23.247,8.732-.918,1.379-4.051,13.8-5.667,20.533" transform="translate(0 -74.975)" fill="#222"/>
    <path id="パス_10945" data-name="パス 10945" d="M85.247,136.484l-.483.3-.456,3.158,10.037,20.868,2.888-14.69-2.909-3.546Zm26.551.014-9.4,6.29-2.733,3.33,2.889,14.69L112.59,139.94l-.2-3.213Zm-9.873,5.138,9.312-5.68-2.953-7.823H88.615l-2.972,7.575v.154l9.374,5.73,2.216-2.2,1.307-1.282,1.126,1.282Z" transform="translate(-50.832 -77.255)" fill="#fff"/>
    <path id="パス_10946" data-name="パス 10946" d="M109.64,42.376l-3.478-6.682L95.348,35l.013-.317-2.288-1.881-2.656,1.881.014.317-10.813.691L76.14,42.376,75.866,51.8s3.3,13.913,4.211,16.477,7.872,8.6,9.336,8.785a23.465,23.465,0,0,0,3.477.031,23.488,23.488,0,0,0,3.478-.031c1.464-.183,8.42-6.225,9.336-8.785S109.915,51.8,109.915,51.8Z" transform="translate(-45.742 -19.779)" fill="#fff"/>
    <path id="パス_10947" data-name="パス 10947" d="M93.654,76.539c-.691,0-1.343-.026-1.781-.049-.437.023-1.09.049-1.781.049a15.186,15.186,0,0,1-1.778-.087c-1.818-.226-8.942-6.589-9.882-9.224-.916-2.569-4.1-15.978-4.232-16.547l-.02-.085,0-.089.279-9.579,3.723-7.15L88.721,33.1v-.027l3.367-2.387L95.021,33.1l10.542.674,3.723,7.15.282,9.668-.021.085c-.135.569-3.316,13.978-4.23,16.547-.942,2.635-8.067,9-9.882,9.224a15.228,15.228,0,0,1-1.78.087m-1.781-1.385.035,0c.345.017,1.03.049,1.746.049a13.641,13.641,0,0,0,1.614-.077c1.113-.152,7.9-5.863,8.791-8.346.854-2.4,3.891-15.15,4.169-16.321l-.268-9.186-3.234-6.212-11.088-.71.026-.636-1.638-1.347-1.942,1.377.026.607-11.089.71-3.235,6.212-.268,9.186c.278,1.171,3.316,13.923,4.17,16.321.887,2.484,7.677,8.194,8.79,8.346a13.607,13.607,0,0,0,1.614.077c.716,0,1.4-.032,1.746-.049Z" transform="translate(-44.725 -18.504)" fill="#222"/>
    <path id="パス_10948" data-name="パス 10948" d="M116.307,123.238c0,.5-1.589.837-3.864.837s-4.373-.337-4.373-.837,2.026-.069,4.3-.069,3.937-.433,3.937.069" transform="translate(-65.159 -74.157)" fill="#222"/>
    <path id="パス_10949" data-name="パス 10949" d="M84.922,13.628s.184,4.461,8.606,7.574a12.566,12.566,0,0,1,8.42,12.215l.586,5.128,4.447-7.365s1.751-9.256-.833-17.344c-2.361-7.39-11.34-12.507-11.34-12.507s-11.59-3.086-19.179.146c-4.537,1.932-10.589,8.894-12.173,15.2a30.437,30.437,0,0,0-.417,11.841C63.622,32.6,67.9,39.518,67.9,39.518S70.475,24.65,76.88,22.091c5.836-2.332,8-7.129,8.042-8.463" transform="translate(-37.774 0)" fill="#222"/>
  </g>
</svg>
