<svg xmlns="http://www.w3.org/2000/svg" viewBox="0 0 235.34 59.01"><defs><style>.cls-1{fill:#00af82;}.cls-2{fill:#29abe2;}.cls-3{fill:#fff;}.cls-4{fill:#dbc5ac;}</style></defs><title>フッタロゴ</title><g id="レイヤー_2" data-name="レイヤー 2"><g id="ping_svg" data-name="ping/svg"><rect class="cls-1" width="83.9" height="59.01" rx="3.09"/><path class="cls-2" d="M100.87,48.3a.45.45,0,0,0,.23,0c.05,0,.07,0,.11,0s.19.06.4.28.3.32.3.43a.22.22,0,0,1-.1.18.94.94,0,0,0-.19.34,8.05,8.05,0,0,1-2.5,3.74c-.1.09-.16.13-.21.13s-.1-.05-.18-.18a1.84,1.84,0,0,0-.53-.57,6.45,6.45,0,0,0,2.47-3.35h-1c-.7,0-.92,0-1,0s-.1,0-.1-.11v-.74c0-.09,0-.1.1-.1s.28,0,1,0Zm2.22-.93a7.52,7.52,0,0,0,.73,2,9.8,9.8,0,0,0,1.3-1.36,2,2,0,0,0,.32-.5,7.21,7.21,0,0,1,.8.55c.1.08.13.12.13.18a.18.18,0,0,1-.13.16,2.47,2.47,0,0,0-.5.42,13.05,13.05,0,0,1-1.43,1.33,7.2,7.2,0,0,0,2.62,2.32,2.55,2.55,0,0,0-.52.69c-.08.13-.12.19-.17.19a.48.48,0,0,1-.23-.11,8.06,8.06,0,0,1-3-3.81c0,1.36.07,2.92.07,3.81a.89.89,0,0,1-.37.86,2.71,2.71,0,0,1-1.38.22c-.28,0-.29,0-.36-.28a2.22,2.22,0,0,0-.31-.72c.29,0,.61,0,.92,0s.47-.08.47-.3V47a6.36,6.36,0,0,0-.06-1.07c.34,0,.72,0,1,0,.09,0,.16.06.16.11a.84.84,0,0,1-.07.24,2.89,2.89,0,0,0,0,.66Z"/><path class="cls-2" d="M116,54.1c-.06.2-.09.25-.18.25l-.21,0a6.13,6.13,0,0,1-2.32-1.14,4.18,4.18,0,0,1-1.14-1.45,3.89,3.89,0,0,1-.8,1.25,5,5,0,0,1-2.73,1.34l-.21,0c-.09,0-.12-.05-.17-.19a2.6,2.6,0,0,0-.39-.71,4.79,4.79,0,0,0,2.85-1.19,3.08,3.08,0,0,0,.8-1.82,3.88,3.88,0,0,0,0-1,9.53,9.53,0,0,1,1,.1c.1,0,.15.06.15.11a.57.57,0,0,1-.08.23,4.24,4.24,0,0,0,0,.44,3.34,3.34,0,0,0,1.27,2,6.49,6.49,0,0,0,2.6,1.05A3.4,3.4,0,0,0,116,54.1Zm-6-4.57c-.09,0-.13,0-.17,0a8.8,8.8,0,0,0-1.45-1.65c-.07-.08-.11-.12-.11-.15s0-.09.11-.16a7.55,7.55,0,0,0,1-1.13,2.39,2.39,0,0,0,.28-.49,4.89,4.89,0,0,1,.88.35c.09.05.11.09.11.14a.13.13,0,0,1-.09.13,1.27,1.27,0,0,0-.25.24c-.27.3-.52.58-.84.88a9.77,9.77,0,0,1,1.24,1.25c.06.07,0,.09-.07.17Zm-1.34,2.15c-.12,0-.12-.1,0-.17a5,5,0,0,0,1-1.55c0-.1.07-.1.2-.05l.61.22c.11,0,.12.06.08.15a6.53,6.53,0,0,1-1,1.68s-.06.07-.09.07a.36.36,0,0,1-.13-.05Zm3.82-2.25c-.09.07-.12.06-.18,0a9.08,9.08,0,0,0-1.38-1.55c-.07-.07-.11-.12-.11-.15s0-.1.11-.17a7.7,7.7,0,0,0,1-1.12,3.2,3.2,0,0,0,.29-.51,5.2,5.2,0,0,1,.85.34c.09,0,.12.08.12.13s0,.1-.1.14a.87.87,0,0,0-.24.24,9.87,9.87,0,0,1-.84.9,8.53,8.53,0,0,1,1.18,1.15c.06.08.06.08-.06.17Zm2.57.08c-.09.06-.12.05-.18,0a8.69,8.69,0,0,0-1.43-1.61c-.08-.07-.11-.12-.11-.16s0-.11.11-.18a9.07,9.07,0,0,0,1-1.17,2.76,2.76,0,0,0,.27-.49,6.16,6.16,0,0,1,.86.34c.07,0,.11.08.11.14s0,.09-.1.13-.12.11-.24.25a12.2,12.2,0,0,1-.86.92,9.25,9.25,0,0,1,1.27,1.23c.06.08,0,.09-.07.18Zm-.65.74a2,2,0,0,0,.24-.46,5.93,5.93,0,0,1,.79.36c.15.09.17.12.17.17s0,.11-.11.15a1,1,0,0,0-.18.18,7.53,7.53,0,0,1-.93,1.05c-.1.09-.15.15-.21.15s-.11-.06-.24-.15a2.46,2.46,0,0,0-.56-.35A6.1,6.1,0,0,0,114.4,50.25Z"/><path class="cls-2" d="M119.22,51.14c-.83,0-1.12,0-1.18,0s-.1,0-.1-.11v-.56c0-.1,0-.11.1-.11s.35,0,1.18,0h2.33v-.49h-1.22c-.92,0-1.24,0-1.3,0s-.1,0-.1-.11v-.51c0-.1,0-.11.1-.11s.38,0,1.3,0h1.22v-.48h-.87c-.88,0-1.18,0-1.23,0s-.12,0-.12-.1v-.52c0-.1,0-.11.12-.11s.35,0,1.23,0h.87a2.68,2.68,0,0,0-.07-.56c.35,0,.63,0,1,.07.09,0,.14,0,.14.1a.2.2,0,0,1,0,.13.44.44,0,0,0,0,.26h1c.87,0,1.17,0,1.23,0s.1,0,.1.11v.52c0,.09,0,.1-.1.1s-.36,0-1.23,0h-1v.48h1.36c.91,0,1.23,0,1.29,0s.1,0,.1.11v.51c0,.1,0,.11-.1.11s-.38,0-1.29,0h-1.36v.49H125c.84,0,1.13,0,1.18,0s.11,0,.11.11v.56c0,.1,0,.11-.11.11s-.34,0-1.18,0Zm5.51-4.63c.86,0,1.17,0,1.23,0s.1,0,.1.11,0,.21,0,.45v.38c0,.8,0,1,0,1s0,.1-.1.1h-.77c-.1,0-.11,0-.11-.1V47.3h-6v1.14c0,.09,0,.1-.1.1h-.77c-.09,0-.1,0-.1-.1s0-.21,0-1v-.31c0-.31,0-.46,0-.52s0-.11.1-.11.37,0,1.23,0h2.09a3.88,3.88,0,0,0-.06-.72c.32,0,.67,0,1,.05.09,0,.14,0,.14.09a.67.67,0,0,1,0,.19.9.9,0,0,0,0,.39Zm-5.44,7.91c-.1,0-.11,0-.11-.1s0-.25,0-1.29v-.55c0-.49,0-.69,0-.75s0-.11.11-.11.38,0,1.29,0h3c.9,0,1.23,0,1.28,0s.12,0,.12.11,0,.26,0,.66V53c0,1,0,1.21,0,1.27s0,.09-.12.09h-.78c-.1,0-.11,0-.11-.09V54h-3.82v.33c0,.09,0,.1-.11.1Zm.9-1.17H124v-.86h-3.82Z"/><path class="cls-2" d="M129.42,47.79a6.83,6.83,0,0,0-.1-1.37,6.61,6.61,0,0,1,1.16.2c.12,0,.16.08.16.15a.43.43,0,0,1,0,.14,2.25,2.25,0,0,0-.1.89v1.89c0,.49,0,.86,0,1.19,0,.14-.06.18-.21.18h-.75c-.13,0-.18,0-.18-.16,0-.32,0-.87,0-1.27Zm4.42,1.75A4.1,4.1,0,0,1,131,54.07a.58.58,0,0,1-.2,0,.31.31,0,0,1-.22-.11,2.81,2.81,0,0,0-.8-.57,4.61,4.61,0,0,0,2.29-1.37,3.91,3.91,0,0,0,.62-2.51V47.79a6.58,6.58,0,0,0-.1-1.53,5.6,5.6,0,0,1,1.22.21.16.16,0,0,1,.13.16.31.31,0,0,1,0,.15,2.94,2.94,0,0,0-.08,1Z"/><path class="cls-2" d="M141.77,47.14a1.47,1.47,0,0,0,.65-.08.14.14,0,0,1,.1,0,.27.27,0,0,1,.16.08,3.45,3.45,0,0,1,.61.65.28.28,0,0,1,.05.12.26.26,0,0,1-.12.19,1.76,1.76,0,0,0-.35.41,15.1,15.1,0,0,1-1.2,1.76,22.34,22.34,0,0,1,2.6,2.27.21.21,0,0,1,.07.13.27.27,0,0,1-.06.14,5.42,5.42,0,0,1-.63.64.16.16,0,0,1-.12.05.19.19,0,0,1-.13-.07A17,17,0,0,0,141,51.06a13.26,13.26,0,0,1-3.16,2.48.52.52,0,0,1-.21.07.19.19,0,0,1-.16-.08,2.69,2.69,0,0,0-.79-.61,11.74,11.74,0,0,0,5.07-4.75H139.3c-.49,0-1,0-1.49.06-.07,0-.1-.06-.12-.16a6.31,6.31,0,0,1-.08-1c.5,0,1,0,1.58,0Z"/><path class="cls-2" d="M151.53,47.63a.91.91,0,0,0,.47-.11.19.19,0,0,1,.12,0,.24.24,0,0,1,.15.06,4.73,4.73,0,0,1,.64.5.33.33,0,0,1,.12.22.27.27,0,0,1-.11.2,1.05,1.05,0,0,0-.31.4,13.25,13.25,0,0,1-1.86,2.9,11.59,11.59,0,0,1-2.85,2.33.23.23,0,0,1-.15,0,.34.34,0,0,1-.21-.1,2.65,2.65,0,0,0-.89-.44,10.62,10.62,0,0,0,3.12-2.39,9.41,9.41,0,0,0,1.73-2.66l-2.27.07a12.58,12.58,0,0,1-1.77,1.92.3.3,0,0,1-.2.1.24.24,0,0,1-.14-.06,2.74,2.74,0,0,0-.9-.4,11,11,0,0,0,2.53-2.78,4,4,0,0,0,.55-1.27,4.9,4.9,0,0,1,1.1.5.19.19,0,0,1,.09.16.21.21,0,0,1-.1.16c-.1,0-.16.16-.24.25s-.19.3-.31.47Z"/><path class="cls-2" d="M161.09,47.72c.54,0,.65,0,.77-.08a.3.3,0,0,1,.14,0,.24.24,0,0,1,.16.08,4.42,4.42,0,0,1,.67.75.37.37,0,0,1,.08.2.22.22,0,0,1-.13.2,3.72,3.72,0,0,0-.45.36,33.11,33.11,0,0,1-2.52,2.51,10.91,10.91,0,0,1,.83.94.24.24,0,0,1,.06.14s0,.09-.08.15a8,8,0,0,1-.61.55.28.28,0,0,1-.12.05.17.17,0,0,1-.12-.08,13.63,13.63,0,0,0-3-2.92l.68-.63a.19.19,0,0,1,.1,0,.24.24,0,0,1,.13.07A13.71,13.71,0,0,1,159,51a20.6,20.6,0,0,0,2.17-2.21l-3.95,0c-.54,0-1.24,0-1.74.06-.12,0-.15-.06-.17-.17a8,8,0,0,1-.11-1c.63.06,1.39.06,2,.06Z"/><path class="cls-2" d="M166,48.87a.16.16,0,0,1,.24.06,5.26,5.26,0,0,1,.81,1.39.82.82,0,0,1,0,.14c0,.06,0,.09-.11.13a3.27,3.27,0,0,1-.6.29c-.14,0-.19,0-.24-.13a5.85,5.85,0,0,0-.88-1.51Zm5.15.12c.07.06.12.1.12.16s0,.1-.1.17a1.22,1.22,0,0,0-.28.48,12,12,0,0,1-1.42,2.49,7.35,7.35,0,0,1-1.93,1.81.39.39,0,0,1-.23.1.21.21,0,0,1-.15-.06,2,2,0,0,0-.79-.39,8.36,8.36,0,0,0,2.25-2,9.42,9.42,0,0,0,1.26-2.26,3.44,3.44,0,0,0,.22-1A4.53,4.53,0,0,1,171.12,49Zm-3.26-.57a.17.17,0,0,1,.25.07,5.55,5.55,0,0,1,.72,1.37c0,.14,0,.19-.09.26a5.16,5.16,0,0,1-.65.29c-.1,0-.14,0-.19-.14a5.83,5.83,0,0,0-.79-1.5C167.49,48.59,167.7,48.48,167.86,48.42Z"/><path class="cls-2" d="M174.93,49.44a16.55,16.55,0,0,0,2.29-.91,2.8,2.8,0,0,0,1-.67,5.1,5.1,0,0,1,.78.84c.12.13.11.29-.08.34a4,4,0,0,0-.78.31,25.61,25.61,0,0,1-3.22,1.16v1.25c0,.44.07.59.31.66a4.58,4.58,0,0,0,1.19.11,16.58,16.58,0,0,0,2.64-.22c.14,0,.16,0,.17.13,0,.26.05.62.05.82s-.05.16-.19.17a19,19,0,0,1-2.79.17,4.56,4.56,0,0,1-1.78-.26c-.47-.19-.67-.64-.67-1.4V48.47a9.29,9.29,0,0,0-.09-1.71,7.67,7.67,0,0,1,1.18.19c.21,0,.17.2.09.34a2,2,0,0,0-.1.85Zm6-2.09a1,1,0,0,1-2,0,1,1,0,0,1,1-1A1,1,0,0,1,180.91,47.35Zm-1.57,0a.56.56,0,1,0,.55-.55A.54.54,0,0,0,179.34,47.35Z"/><path class="cls-2" d="M183.43,47.09a.17.17,0,0,1,.13-.08.24.24,0,0,1,.12.05,9.26,9.26,0,0,1,1.79,1.33c.06.06.09.09.09.13a.17.17,0,0,1-.06.12c-.14.19-.45.57-.58.71s-.08.07-.11.07a.24.24,0,0,1-.13-.07,9.65,9.65,0,0,0-1.91-1.53C183,47.57,183.25,47.27,183.43,47.09Zm.81,4.94a13.48,13.48,0,0,0,2.7-1.75,13.22,13.22,0,0,0,2.57-2.55,4,4,0,0,0,.27,1.1.65.65,0,0,1,0,.18.43.43,0,0,1-.15.28,15.33,15.33,0,0,1-2.15,2,20.73,20.73,0,0,1-2.84,1.84,2.65,2.65,0,0,0-.62.43.31.31,0,0,1-.17.09.24.24,0,0,1-.16-.1,5.94,5.94,0,0,1-.75-1A5.55,5.55,0,0,0,184.24,52Z"/><path class="cls-2" d="M196.9,47.72a.81.81,0,0,0,.47-.12.18.18,0,0,1,.12,0,.23.23,0,0,1,.15,0,4.1,4.1,0,0,1,.64.51.31.31,0,0,1,.12.21.26.26,0,0,1-.11.2,1.05,1.05,0,0,0-.31.4,12.78,12.78,0,0,1-1.86,2.9,11.87,11.87,0,0,1-2.85,2.34.28.28,0,0,1-.15,0,.29.29,0,0,1-.21-.1,2.46,2.46,0,0,0-.89-.43,11,11,0,0,0,3.12-2.39,9.62,9.62,0,0,0,1.73-2.67l-2.27.07a12.11,12.11,0,0,1-1.77,1.92.27.27,0,0,1-.2.11.24.24,0,0,1-.14-.06,2.38,2.38,0,0,0-.9-.4,11.22,11.22,0,0,0,2.53-2.79,3.88,3.88,0,0,0,.55-1.27,4.9,4.9,0,0,1,1.1.5.21.21,0,0,1,.09.16.19.19,0,0,1-.1.16,1.14,1.14,0,0,0-.24.25c-.1.16-.19.3-.31.47Zm1.16-1.27c.05,0,.09,0,.15,0a4.44,4.44,0,0,1,.89,1,.1.1,0,0,1,0,.15l-.4.29c-.06.05-.11,0-.16,0a4.71,4.71,0,0,0-.94-1.08Zm.84-.61c.06,0,.08,0,.14,0a4,4,0,0,1,.89,1c0,.06,0,.12,0,.17l-.37.29c-.08.06-.12,0-.16,0a4.6,4.6,0,0,0-.94-1.08Z"/><path class="cls-2" d="M201.32,48.78c0-.06.09-.11.17-.09a6.84,6.84,0,0,1,1.81.92c.06,0,.1.08.1.14a.21.21,0,0,1,0,.1,3.63,3.63,0,0,1-.41.72s-.09.09-.12.09a.19.19,0,0,1-.12-.06,8.23,8.23,0,0,0-1.89-1C201.05,49.21,201.2,48.93,201.32,48.78Zm1.52,3.48a16,16,0,0,0,2.57-1.62,16.89,16.89,0,0,0,2.7-2.62,4.27,4.27,0,0,0,.27,1,.49.49,0,0,1,.05.18.29.29,0,0,1-.11.22,17.64,17.64,0,0,1-2.38,2.17,23.58,23.58,0,0,1-2.8,1.76,2.76,2.76,0,0,0-.55.32.21.21,0,0,1-.15.07.27.27,0,0,1-.19-.11,6,6,0,0,1-.69-1A4.36,4.36,0,0,0,202.84,52.26Zm-.39-5.63c.07-.12.12-.13.24-.08a6.58,6.58,0,0,1,1.76,1,.14.14,0,0,1,.07.13.35.35,0,0,1,0,.12,4.1,4.1,0,0,1-.48.7.11.11,0,0,1-.1.06.26.26,0,0,1-.14-.07A8.91,8.91,0,0,0,202,47.38Z"/><path class="cls-2" d="M214.9,47.14a1.47,1.47,0,0,0,.65-.08.16.16,0,0,1,.1,0,.27.27,0,0,1,.16.08,3.45,3.45,0,0,1,.61.65.28.28,0,0,1,.05.12.26.26,0,0,1-.12.19,2,2,0,0,0-.35.41,14,14,0,0,1-1.2,1.76,21.55,21.55,0,0,1,2.6,2.27.21.21,0,0,1,.07.13.27.27,0,0,1-.06.14,5.42,5.42,0,0,1-.63.64.15.15,0,0,1-.11.05.16.16,0,0,1-.13-.07,17.64,17.64,0,0,0-2.44-2.33A13.42,13.42,0,0,1,211,53.54a.55.55,0,0,1-.22.07.19.19,0,0,1-.16-.08,2.69,2.69,0,0,0-.79-.61,11.28,11.28,0,0,0,3.3-2.39,11.1,11.1,0,0,0,1.77-2.36h-2.42c-.49,0-1,0-1.48.06-.08,0-.11-.06-.13-.16a6.31,6.31,0,0,1-.08-1c.51,0,1,0,1.58,0Z"/><path class="cls-2" d="M223.64,49.83a5.37,5.37,0,0,1-.55,2.39A4.79,4.79,0,0,1,221.44,54a.67.67,0,0,1-.28.11A.28.28,0,0,1,221,54a2.43,2.43,0,0,0-.84-.5A4.18,4.18,0,0,0,222,51.84a4,4,0,0,0,.48-2h-1.78c-.47,0-.93,0-1.41.05-.08,0-.11-.05-.12-.18a5.29,5.29,0,0,1-.08-.9c.53.05,1,.05,1.6.05h4.21c.73,0,1.27,0,1.83-.06.09,0,.1.06.1.19s0,.6,0,.72-.06.16-.14.16c-.49,0-1.13,0-1.78,0Zm-1.86-2.18c-.43,0-.8,0-1.33,0-.12,0-.15,0-.16-.16s0-.57-.06-.9c.65,0,1.13,0,1.55,0h2.11c.52,0,1.11,0,1.58,0,.09,0,.11,0,.11.17a4,4,0,0,1,0,.69c0,.13,0,.18-.12.18-.51,0-1.06,0-1.57,0Z"/><path class="cls-2" d="M232.11,46.78a.2.2,0,0,1,.11.15.39.39,0,0,1-.09.19,3.09,3.09,0,0,0-.39.77c-.52,1.44-1,2.82-1.61,4.22,1.44-.12,2.23-.19,3.28-.35a9.36,9.36,0,0,0-1-1.5l.82-.45c.1-.06.16,0,.22,0a13.46,13.46,0,0,1,1.9,3.07.3.3,0,0,1,0,.12c0,.06,0,.11-.12.16a5.38,5.38,0,0,1-.71.39l-.11,0c-.06,0-.11,0-.14-.13l-.32-.75c-1.5.23-2.93.39-4.46.55a3.16,3.16,0,0,0-1.1.22c-.12.06-.22,0-.27-.09a11.43,11.43,0,0,1-.33-1.21,11,11,0,0,0,1.15,0c.66-1.68,1.15-3.07,1.64-4.65a5,5,0,0,0,.27-1.28A5.09,5.09,0,0,1,232.11,46.78Z"/><path class="cls-2" d="M130.83,10.19h0l-3-6.07a.75.75,0,0,0-1.34,0L123.59,10a3.9,3.9,0,0,0-.4,1.7,4,4,0,1,0,7.95,0A3.91,3.91,0,0,0,130.83,10.19Z"/><path class="cls-3" d="M143.37,37a15.5,15.5,0,0,1-8.13-2.36.46.46,0,0,1-.16-.65l2-3.19a.48.48,0,0,1,.64-.15,10.61,10.61,0,0,0,6.15,1.65c1,0,2.18-.36,2.18-1.67,0-1.08-1.24-1.62-3-1.62-2,0-4.82-.39-6.53-2.26a5.41,5.41,0,0,1-1.38-4.29c.28-3.52,3.41-5.8,8-5.8a11.83,11.83,0,0,1,6.54,1.87.46.46,0,0,1,.11.66l-2.23,3a.46.46,0,0,1-.61.12,7.27,7.27,0,0,0-3.81-1c-1.1,0-3.3.07-3.3,1.49,0,1.25,1.47,1.48,3.24,1.48,5,0,7.67,3.25,7.67,6.31,0,4.17-3.46,6.22-6.67,6.36Z"/><rect class="cls-3" x="124.18" y="19.53" width="5.39" height="17.57" rx="0.47"/><rect class="cls-3" x="155.29" y="9.4" width="5.39" height="27.68" rx="0.47"/><path class="cls-3" d="M233.58,30.18v-10a.47.47,0,0,0-.47-.47h-2.92a9.91,9.91,0,0,0-6.82-2.5,10,10,0,0,0,.23,20A9.93,9.93,0,0,0,230,34.81a6.73,6.73,0,0,0,4.37,2.09.47.47,0,0,0,.52-.46V31.92a.47.47,0,0,0-.36-.44A1.34,1.34,0,0,1,233.58,30.18Zm-10,1.6a4.59,4.59,0,1,1,4.58-4.59A4.6,4.6,0,0,1,223.6,31.78Z"/><path class="cls-3" d="M119.32,18.62a9.23,9.23,0,0,0-9-9.22L99,9.42a.47.47,0,0,0-.47.47V36.62a.47.47,0,0,0,.47.47h4.45a.47.47,0,0,0,.47-.47V15.26a.47.47,0,0,1,.47-.47h5.75a3.83,3.83,0,0,1,.16,7.65H107a.47.47,0,0,0-.47.46v4.64a.88.88,0,0,0,.15.49l5.49,8.83a.44.44,0,0,0,.39.22h5.24a.47.47,0,0,0,.4-.72l-5.54-8.89A9.22,9.22,0,0,0,119.32,18.62Z"/><path class="cls-3" d="M169.33,23.25l6.51-13.19a.46.46,0,0,0-.42-.67h-5.23a.48.48,0,0,0-.42.26l-6.53,13.23a1.39,1.39,0,0,0,0,1.27l6.55,12.69a.47.47,0,0,0,.42.26h5.28a.47.47,0,0,0,.41-.69l-6.57-12.74A.48.48,0,0,1,169.33,23.25Z"/><path class="cls-3" d="M209.8,25.65a8.66,8.66,0,0,0-14.64-6.13,8.58,8.58,0,0,0-6-2.4,8.67,8.67,0,0,0-8.67,8.67V36.61a.47.47,0,0,0,.47.47h4.46a.47.47,0,0,0,.46-.47V25.76a3.28,3.28,0,0,1,6.55,0s0,8.69,0,10.82a.47.47,0,0,0,.47.47h4.45a.47.47,0,0,0,.47-.47v-11h0a3.27,3.27,0,0,1,6.54.14s0,8.7,0,10.82a.47.47,0,0,0,.47.47h4.45a.47.47,0,0,0,.47-.47Z"/><circle class="cls-4" cx="41.64" cy="23.95" r="1.02"/><circle class="cls-4" cx="34.52" cy="13.2" r="1.02"/><path class="cls-3" d="M68.8,41.88a.92.92,0,0,1-.66-.47.89.89,0,0,1,0-.81,14.56,14.56,0,0,0,1.19-5.79A14.23,14.23,0,0,0,62.68,22.5,40.07,40.07,0,0,1,53,12.76a.94.94,0,0,1-.16-.69,1,1,0,0,1,.38-.6,1.47,1.47,0,0,0,.49-1.78,1.46,1.46,0,0,0-2.6-.15.93.93,0,0,1-1.2.36l-.41-.17A.92.92,0,0,1,49,8.54a1.48,1.48,0,0,0-.84-1.9,1.5,1.5,0,0,0-1.12,0,1.46,1.46,0,0,0-.85,1.58.89.89,0,0,1-.18.7.92.92,0,0,1-.62.36,6.78,6.78,0,0,0-4.1,1.6A8.63,8.63,0,0,1,37,12.8a2.85,2.85,0,0,1,0,.4,2.5,2.5,0,0,1-3.26,2.37,3.67,3.67,0,0,0,0,.46,3.13,3.13,0,0,0,2.13,3l.71.2h.22a3.17,3.17,0,0,0,2.87-1.78.92.92,0,0,1,1.65.83,4.9,4.9,0,0,1-2.13,2.19,12.36,12.36,0,0,1,1.55,1.13,2.29,2.29,0,0,1,.91-.19,2.49,2.49,0,0,1,1.5,4.48c0,.06,0,.12,0,.19v0c0,2.9-2,5.07-5.89,6.45-.54.19-1.18.56-1.18,1.19A1.15,1.15,0,0,0,37.23,35l6.38,0a3,3,0,0,1,0,6H41a1.25,1.25,0,0,0-1.26,1.16,1.71,1.71,0,0,0,.85,1.56s3.2,2.06,5,3.15a21.3,21.3,0,0,0,9,2.57,14.55,14.55,0,0,0,10.47-4.41.91.91,0,0,1,.77-.27.89.89,0,0,1,.68.44,2.24,2.24,0,1,0,2.26-3.36ZM42.22,13.94a1,1,0,1,1,1-1A1,1,0,0,1,42.22,13.94Z"/><path class="cls-3" d="M43.61,36.86h0l-6.38,0a3,3,0,0,1-3-3,3.19,3.19,0,0,1,2.4-2.93c.47-.17.91-.35,1.31-.53a3.42,3.42,0,0,1-1.32-1.07A.93.93,0,0,1,36.82,28a.92.92,0,0,1,1.29.19,1.63,1.63,0,0,0,1.29.64,1.59,1.59,0,0,0,1.34-.73.53.53,0,0,1,.12-.14,3.69,3.69,0,0,0,.43-1.54A2.51,2.51,0,0,1,39.15,24a2.4,2.4,0,0,1,.15-.84A3.15,3.15,0,0,0,38,22.83l-5.21,0a1,1,0,0,1-.75-.39.91.91,0,0,1-.12-.83,1.81,1.81,0,0,0-.3-1.39,1.36,1.36,0,0,0-1.2-.54h0a1.61,1.61,0,0,0-1.6,1.58,1.56,1.56,0,0,0,.35,1,.92.92,0,0,1-.22,1.35,5.07,5.07,0,0,0-2.34,4.24,9.28,9.28,0,0,0,.53,2.78,7.2,7.2,0,0,1,.41,2,7.3,7.3,0,0,1-1.61,4.93c-.19.26-.38.53-.57.84l0,0-.6,1.11a7,7,0,0,0-.21,5.07,1,1,0,0,1-.05.71.94.94,0,0,1-.54.46.92.92,0,0,1-1.17-.58,9.39,9.39,0,0,1-.46-2.89A9,9,0,0,1,23,38.75a.36.36,0,0,1,0-.09l.87-1.6a7.18,7.18,0,0,0,.66-4.2,7.33,7.33,0,0,0-6.45-6.2,7.22,7.22,0,0,0-5.64,1.84,7.28,7.28,0,0,0,4.89,12.67,6.71,6.71,0,0,0,1.2-.24.92.92,0,0,1,.58,1.75,7.78,7.78,0,0,1-1.39.3,3.73,3.73,0,0,0-2.49,3.63,3.84,3.84,0,0,0,3.83,3.83,4,4,0,0,0,2.77-1.2l.11-.09c2-1.43,3.91-.84,5.79-.27a11.74,11.74,0,0,0,3.41.68,6.87,6.87,0,0,0,4.17-1.05A2.48,2.48,0,0,1,38,48.39a7,7,0,0,0,2.92,1,2,2,0,0,0,2-2.07c-.86-.52-2.52-1.61-2.54-1.62l-.26-.16c-1-.63-2.62-1.67-2.3-3.66a3.05,3.05,0,0,1,3-2.69H43.6a1.16,1.16,0,0,0,0-2.32Zm-8-12.78a1,1,0,1,1-1,1A1,1,0,0,1,35.6,24.08Z"/></g></g></svg>